<svg width="70" height="71" viewBox="0 0 70 71" fill="none" xmlns="http://www.w3.org/2000/svg">
<path d="M23.4369 24.1277L12.0885 37.7459C11.0752 38.9618 10.5685 39.5698 10.5608 40.0832C10.5541 40.5296 10.753 40.9543 11.1002 41.2349C11.4996 41.5576 12.291 41.5576 13.8738 41.5576H35.0568L32.1519 64.7975L46.6768 47.3676M45.6601 29.9377H56.2399C57.8227 29.9377 58.6141 29.9377 59.0135 30.2605C59.3607 30.541 59.5596 30.9657 59.5529 31.4121C59.5452 31.9255 59.0385 32.5335 58.0252 33.7495L54.0852 38.4775M30.9107 15.159L37.9617 6.69781L36.2196 20.6351M61.2017 61.8925L8.91199 9.6028" stroke="black" stroke-width="2" stroke-linecap="round" stroke-linejoin="round"/>
</svg>
